<?xml version="1.0" encoding="UTF-8"?>
<svg version="1.1" xmlns="http://www.w3.org/2000/svg" width="128" height="128">
<path d="M0 0 C8.25 0 16.5 0 25 0 C25 1.98 25 3.96 25 6 C28.96 6 32.92 6 37 6 C37 8.31 37 10.62 37 13 C38.98 13 40.96 13 43 13 C43 14.98 43 16.96 43 19 C45.31 19 47.62 19 50 19 C50 20.98 50 22.96 50 25 C51.98 25 53.96 25 56 25 C56 29.29 56 33.58 56 38 C57.98 38 59.96 38 62 38 C62 41.3 62 44.6 62 48 C62.99 48 63.98 48 65 48 C65 49.98 65 51.96 65 54 C67.31 54 69.62 54 72 54 C72 55.98 72 57.96 72 60 C73.98 60 75.96 60 78 60 C78 62.31 78 64.62 78 67 C79.98 67 81.96 67 84 67 C84 68.98 84 70.96 84 73 C85.98 73 87.96 73 90 73 C90 76.96 90 80.92 90 85 C88.02 85 86.04 85 84 85 C84 86.98 84 88.96 84 91 C80.04 91 76.08 91 72 91 C72 92.98 72 94.96 72 97 C69.69 97 67.38 97 65 97 C65 98.98 65 100.96 65 103 C63.02 103 61.04 103 59 103 C59 105.31 59 107.62 59 110 C57.02 110 55.04 110 53 110 C53 113.96 53 117.92 53 122 C51.02 122 49.04 122 47 122 C47 123.98 47 125.96 47 128 C43.04 128 39.08 128 35 128 C35 126.02 35 124.04 35 122 C32.69 122 30.38 122 28 122 C28 120.02 28 118.04 28 116 C26.02 116 24.04 116 22 116 C22 114.02 22 112.04 22 110 C20.02 110 18.04 110 16 110 C16 107.69 16 105.38 16 103 C14.02 103 12.04 103 10 103 C10 102.01 10 101.02 10 100 C6.7 100 3.4 100 0 100 C0 98.02 0 96.04 0 94 C-4.29 94 -8.58 94 -13 94 C-13 92.02 -13 90.04 -13 88 C-14.98 88 -16.96 88 -19 88 C-19 85.69 -19 83.38 -19 81 C-20.98 81 -22.96 81 -25 81 C-25 79.02 -25 77.04 -25 75 C-27.31 75 -29.62 75 -32 75 C-32 71.04 -32 67.08 -32 63 C-33.98 63 -35.96 63 -38 63 C-38 54.75 -38 46.5 -38 38 C-36.02 38 -34.04 38 -32 38 C-32 33.71 -32 29.42 -32 25 C-29.69 25 -27.38 25 -25 25 C-25 23.02 -25 21.04 -25 19 C-23.02 19 -21.04 19 -19 19 C-19 17.02 -19 15.04 -19 13 C-17.02 13 -15.04 13 -13 13 C-13 10.69 -13 8.38 -13 6 C-8.71 6 -4.42 6 0 6 C0 4.02 0 2.04 0 0 Z " fill="#95EC11" transform="translate(38,0)"/>
<path d="M0 0 C8.25 0 16.5 0 25 0 C25 1.98 25 3.96 25 6 C28.96 6 32.92 6 37 6 C37 8.31 37 10.62 37 13 C38.98 13 40.96 13 43 13 C43 14.98 43 16.96 43 19 C45.31 19 47.62 19 50 19 C50 20.98 50 22.96 50 25 C51.98 25 53.96 25 56 25 C56 29.29 56 33.58 56 38 C57.98 38 59.96 38 62 38 C62 41.3 62 44.6 62 48 C62.99 48 63.98 48 65 48 C65 49.98 65 51.96 65 54 C63.02 54 61.04 54 59 54 C59 52.02 59 50.04 59 48 C57.02 48 55.04 48 53 48 C53 51.96 53 55.92 53 60 C51.02 60 49.04 60 47 60 C47 56.04 47 52.08 47 48 C47.99 48 48.98 48 50 48 C50 44.7 50 41.4 50 38 C47.69 38 45.38 38 43 38 C43 41.96 43 45.92 43 50 C37.06 50 31.12 50 25 50 C25 46.04 25 42.08 25 38 C22.69 38 20.38 38 18 38 C18 35.69 18 33.38 18 31 C20.31 31 22.62 31 25 31 C25 29.02 25 27.04 25 25 C28.96 25 32.92 25 37 25 C37 23.02 37 21.04 37 19 C33.04 19 29.08 19 25 19 C25 17.02 25 15.04 25 13 C16.75 13 8.5 13 0 13 C0 14.98 0 16.96 0 19 C-4.29 19 -8.58 19 -13 19 C-13 20.98 -13 22.96 -13 25 C-8.71 25 -4.42 25 0 25 C0 26.98 0 28.96 0 31 C1.98 31 3.96 31 6 31 C6 33.31 6 35.62 6 38 C4.02 38 2.04 38 0 38 C0 41.96 0 45.92 0 50 C-6.27 50 -12.54 50 -19 50 C-19 46.04 -19 42.08 -19 38 C-20.98 38 -22.96 38 -25 38 C-25 46.25 -25 54.5 -25 63 C-23.02 63 -21.04 63 -19 63 C-19 66.96 -19 70.92 -19 75 C-17.02 75 -15.04 75 -13 75 C-13 76.98 -13 78.96 -13 81 C-8.71 81 -4.42 81 0 81 C0 83.31 0 85.62 0 88 C5.28 88 10.56 88 16 88 C16 87.01 16 86.02 16 85 C17.98 85 19.96 85 22 85 C22 86.98 22 88.96 22 91 C20.02 91 18.04 91 16 91 C16 94.96 16 98.92 16 103 C14.02 103 12.04 103 10 103 C10 102.01 10 101.02 10 100 C6.7 100 3.4 100 0 100 C0 98.02 0 96.04 0 94 C-4.29 94 -8.58 94 -13 94 C-13 92.02 -13 90.04 -13 88 C-14.98 88 -16.96 88 -19 88 C-19 85.69 -19 83.38 -19 81 C-20.98 81 -22.96 81 -25 81 C-25 79.02 -25 77.04 -25 75 C-27.31 75 -29.62 75 -32 75 C-32 71.04 -32 67.08 -32 63 C-33.98 63 -35.96 63 -38 63 C-38 54.75 -38 46.5 -38 38 C-36.02 38 -34.04 38 -32 38 C-32 33.71 -32 29.42 -32 25 C-29.69 25 -27.38 25 -25 25 C-25 23.02 -25 21.04 -25 19 C-23.02 19 -21.04 19 -19 19 C-19 17.02 -19 15.04 -19 13 C-17.02 13 -15.04 13 -13 13 C-13 10.69 -13 8.38 -13 6 C-8.71 6 -4.42 6 0 6 C0 4.02 0 2.04 0 0 Z " fill="#000000" transform="translate(38,0)"/>
<path d="M0 0 C1.98 0 3.96 0 6 0 C6 1.98 6 3.96 6 6 C10.29 6 14.58 6 19 6 C19 7.98 19 9.96 19 12 C20.98 12 22.96 12 25 12 C25 14.31 25 16.62 25 19 C26.98 19 28.96 19 31 19 C31 20.98 31 22.96 31 25 C32.98 25 34.96 25 37 25 C37 28.96 37 32.92 37 37 C35.02 37 33.04 37 31 37 C31 38.98 31 40.96 31 43 C27.04 43 23.08 43 19 43 C19 44.98 19 46.96 19 49 C16.69 49 14.38 49 12 49 C12 50.98 12 52.96 12 55 C10.02 55 8.04 55 6 55 C6 57.31 6 59.62 6 62 C4.02 62 2.04 62 0 62 C0 65.96 0 69.92 0 74 C-1.98 74 -3.96 74 -6 74 C-6 75.98 -6 77.96 -6 80 C-9.96 80 -13.92 80 -18 80 C-18 78.02 -18 76.04 -18 74 C-20.31 74 -22.62 74 -25 74 C-25 72.02 -25 70.04 -25 68 C-26.98 68 -28.96 68 -31 68 C-31 66.02 -31 64.04 -31 62 C-32.98 62 -34.96 62 -37 62 C-37 59.69 -37 57.38 -37 55 C-30.73 55 -24.46 55 -18 55 C-18 57.31 -18 59.62 -18 62 C-14.04 62 -10.08 62 -6 62 C-6 57.71 -6 53.42 -6 49 C-2.04 49 1.92 49 6 49 C6 45.04 6 41.08 6 37 C7.98 37 9.96 37 12 37 C12 33.04 12 29.08 12 25 C10.02 25 8.04 25 6 25 C6 23.02 6 21.04 6 19 C4.02 19 2.04 19 0 19 C0 12.73 0 6.46 0 0 Z " fill="#BCB29C" transform="translate(91,48)"/>
<path d="M0 0 C1.98 0 3.96 0 6 0 C6 2.31 6 4.62 6 7 C7.98 7 9.96 7 12 7 C12 8.98 12 10.96 12 13 C13.98 13 15.96 13 18 13 C18 16.96 18 20.92 18 25 C16.02 25 14.04 25 12 25 C12 28.96 12 32.92 12 37 C8.04 37 4.08 37 0 37 C0 41.29 0 45.58 0 50 C-3.96 50 -7.92 50 -12 50 C-12 47.69 -12 45.38 -12 43 C-18.27 43 -24.54 43 -31 43 C-31 39.04 -31 35.08 -31 31 C-29.02 31 -27.04 31 -25 31 C-25 29.02 -25 27.04 -25 25 C-23.02 25 -21.04 25 -19 25 C-19 23.02 -19 21.04 -19 19 C-16.69 19 -14.38 19 -12 19 C-12 17.02 -12 15.04 -12 13 C-10.02 13 -8.04 13 -6 13 C-6 11.02 -6 9.04 -6 7 C-4.02 7 -2.04 7 0 7 C0 4.69 0 2.38 0 0 Z " fill="#DBD0B4" transform="translate(85,60)"/>
<path d="M0 0 C4.29 0 8.58 0 13 0 C13 8.25 13 16.5 13 25 C14.98 25 16.96 25 19 25 C19 28.96 19 32.92 19 37 C20.98 37 22.96 37 25 37 C25 38.98 25 40.96 25 43 C29.29 43 33.58 43 38 43 C38 45.31 38 47.62 38 50 C43.28 50 48.56 50 54 50 C54 49.01 54 48.02 54 47 C55.98 47 57.96 47 60 47 C60 48.98 60 50.96 60 53 C58.02 53 56.04 53 54 53 C54 56.96 54 60.92 54 65 C52.02 65 50.04 65 48 65 C48 64.01 48 63.02 48 62 C44.7 62 41.4 62 38 62 C38 60.02 38 58.04 38 56 C33.71 56 29.42 56 25 56 C25 54.02 25 52.04 25 50 C23.02 50 21.04 50 19 50 C19 47.69 19 45.38 19 43 C17.02 43 15.04 43 13 43 C13 41.02 13 39.04 13 37 C10.69 37 8.38 37 6 37 C6 33.04 6 29.08 6 25 C4.02 25 2.04 25 0 25 C0 16.75 0 8.5 0 0 Z " fill="#000000" transform="translate(0,38)"/>
<path d="M0 0 C6.27 0 12.54 0 19 0 C19 2.31 19 4.62 19 7 C24.94 7 30.88 7 37 7 C37 10.96 37 14.92 37 19 C35.02 19 33.04 19 31 19 C31 20.98 31 22.96 31 25 C27.04 25 23.08 25 19 25 C19 23.02 19 21.04 19 19 C16.69 19 14.38 19 12 19 C12 17.02 12 15.04 12 13 C10.02 13 8.04 13 6 13 C6 11.02 6 9.04 6 7 C4.02 7 2.04 7 0 7 C0 4.69 0 2.38 0 0 Z " fill="#BCB29C" transform="translate(54,103)"/>
<path d="M0 0 C4.29 0 8.58 0 13 0 C13 1.98 13 3.96 13 6 C14.98 6 16.96 6 19 6 C19 8.31 19 10.62 19 13 C17.02 13 15.04 13 13 13 C13 16.96 13 20.92 13 25 C6.73 25 0.46 25 -6 25 C-6 21.04 -6 17.08 -6 13 C-4.02 13 -2.04 13 0 13 C0 8.71 0 4.42 0 0 Z " fill="#000000" transform="translate(25,25)"/>
<path d="M0 0 C3.96 0 7.92 0 12 0 C12 4.29 12 8.58 12 13 C13.98 13 15.96 13 18 13 C18 16.96 18 20.92 18 25 C12.06 25 6.12 25 0 25 C0 21.04 0 17.08 0 13 C-2.31 13 -4.62 13 -7 13 C-7 10.69 -7 8.38 -7 6 C-4.69 6 -2.38 6 0 6 C0 4.02 0 2.04 0 0 Z " fill="#000000" transform="translate(63,25)"/>
<path d="M0 0 C4.29 0 8.58 0 13 0 C13 2.31 13 4.62 13 7 C18.28 7 23.56 7 29 7 C29 6.01 29 5.02 29 4 C30.98 4 32.96 4 35 4 C35 5.98 35 7.96 35 10 C33.02 10 31.04 10 29 10 C29 13.96 29 17.92 29 22 C27.02 22 25.04 22 23 22 C23 21.01 23 20.02 23 19 C19.7 19 16.4 19 13 19 C13 17.02 13 15.04 13 13 C8.71 13 4.42 13 0 13 C0 8.71 0 4.42 0 0 Z " fill="#000000" transform="translate(25,81)"/>
<path d="M0 0 C4.29 0 8.58 0 13 0 C13 4.29 13 8.58 13 13 C14.98 13 16.96 13 19 13 C19 16.3 19 19.6 19 23 C19.99 23 20.98 23 22 23 C22 24.98 22 26.96 22 29 C20.02 29 18.04 29 16 29 C16 27.02 16 25.04 16 23 C14.02 23 12.04 23 10 23 C10 26.96 10 30.92 10 35 C8.02 35 6.04 35 4 35 C4 31.04 4 27.08 4 23 C4.99 23 5.98 23 7 23 C7 19.7 7 16.4 7 13 C4.69 13 2.38 13 0 13 C0 8.71 0 4.42 0 0 Z " fill="#000000" transform="translate(81,25)"/>
<path d="M0 0 C2.31 0 4.62 0 7 0 C7 5.94 7 11.88 7 18 C4.69 18 2.38 18 0 18 C0 19.98 0 21.96 0 24 C-1.98 24 -3.96 24 -6 24 C-6 26.31 -6 28.62 -6 31 C-9.96 31 -13.92 31 -18 31 C-18 26.71 -18 22.42 -18 18 C-14.04 18 -10.08 18 -6 18 C-6 14.04 -6 10.08 -6 6 C-4.02 6 -2.04 6 0 6 C0 4.02 0 2.04 0 0 Z " fill="#BCB29C" transform="translate(103,79)"/>
<path d="M0 0 C3.96 0 7.92 0 12 0 C12 2.31 12 4.62 12 7 C13.98 7 15.96 7 18 7 C18 8.98 18 10.96 18 13 C20.31 13 22.62 13 25 13 C25 14.98 25 16.96 25 19 C22.69 19 20.38 19 18 19 C18 23.29 18 27.58 18 32 C16.02 32 14.04 32 12 32 C12 25.73 12 19.46 12 13 C8.04 13 4.08 13 0 13 C0 8.71 0 4.42 0 0 Z " fill="#000000" transform="translate(63,6)"/>
<path d="M0 0 C8.25 0 16.5 0 25 0 C25 4.29 25 8.58 25 13 C16.75 13 8.5 13 0 13 C0 8.71 0 4.42 0 0 Z " fill="#000000" transform="translate(38,0)"/>
<path d="M0 0 C3.96 0 7.92 0 12 0 C12 1.98 12 3.96 12 6 C14.31 6 16.62 6 19 6 C19 7.98 19 9.96 19 12 C16.69 12 14.38 12 12 12 C12 13.98 12 15.96 12 18 C8.04 18 4.08 18 0 18 C0 16.02 0 14.04 0 12 C-1.98 12 -3.96 12 -6 12 C-6 10.02 -6 8.04 -6 6 C-4.02 6 -2.04 6 0 6 C0 4.02 0 2.04 0 0 Z " fill="#000000" transform="translate(44,63)"/>
<path d="M0 0 C1.98 0 3.96 0 6 0 C6 1.98 6 3.96 6 6 C7.98 6 9.96 6 12 6 C12 9.96 12 13.92 12 18 C10.02 18 8.04 18 6 18 C6 19.98 6 21.96 6 24 C2.04 24 -1.92 24 -6 24 C-6 20.04 -6 16.08 -6 12 C-4.02 12 -2.04 12 0 12 C0 8.04 0 4.08 0 0 Z " fill="#38342A" transform="translate(116,67)"/>
<path d="M0 0 C4.29 0 8.58 0 13 0 C13 3.96 13 7.92 13 12 C14.98 12 16.96 12 19 12 C19 16.29 19 20.58 19 25 C17.02 25 15.04 25 13 25 C13 22.69 13 20.38 13 18 C11.02 18 9.04 18 7 18 C7 16.02 7 14.04 7 12 C4.69 12 2.38 12 0 12 C0 8.04 0 4.08 0 0 Z " fill="#000000" transform="translate(6,63)"/>
<path d="M0 0 C1.98 0 3.96 0 6 0 C6 1.98 6 3.96 6 6 C10.29 6 14.58 6 19 6 C19 10.29 19 14.58 19 19 C16.69 19 14.38 19 12 19 C12 16.69 12 14.38 12 12 C8.04 12 4.08 12 0 12 C0 8.04 0 4.08 0 0 Z " fill="#C6BCA5" transform="translate(91,48)"/>
<path d="M0 0 C1.98 0 3.96 0 6 0 C6 3.96 6 7.92 6 12 C4.02 12 2.04 12 0 12 C0 13.98 0 15.96 0 18 C-3.96 18 -7.92 18 -12 18 C-12 16.02 -12 14.04 -12 12 C-10.02 12 -8.04 12 -6 12 C-6 10.02 -6 8.04 -6 6 C-4.02 6 -2.04 6 0 6 C0 4.02 0 2.04 0 0 Z " fill="#38342A" transform="translate(85,110)"/>
<path d="M0 0 C3.96 0 7.92 0 12 0 C12 4.29 12 8.58 12 13 C8.04 13 4.08 13 0 13 C0 8.71 0 4.42 0 0 Z " fill="#BCB29C" transform="translate(85,97)"/>
<path d="M0 0 C1.98 0 3.96 0 6 0 C6 8.25 6 16.5 6 25 C4.02 25 2.04 25 0 25 C0 16.75 0 8.5 0 0 Z " fill="#95EC11" transform="translate(0,38)"/>
<path d="M0 0 C8.25 0 16.5 0 25 0 C25 1.98 25 3.96 25 6 C16.75 6 8.5 6 0 6 C0 4.02 0 2.04 0 0 Z " fill="#95EC11" transform="translate(38,0)"/>
<path d="M0 0 C3.96 0 7.92 0 12 0 C12 3.96 12 7.92 12 12 C8.04 12 4.08 12 0 12 C0 8.04 0 4.08 0 0 Z " fill="#000000" transform="translate(44,44)"/>
<path d="M0 0 C1.98 0 3.96 0 6 0 C6 3.96 6 7.92 6 12 C4.02 12 2.04 12 0 12 C0 11.01 0 10.02 0 9 C-3.3 9 -6.6 9 -10 9 C-10 7.02 -10 5.04 -10 3 C-6.7 3 -3.4 3 0 3 C0 2.01 0 1.02 0 0 Z " fill="#38342A" transform="translate(48,91)"/>
<path d="M0 0 C3.96 0 7.92 0 12 0 C12 4.29 12 8.58 12 13 C10.02 13 8.04 13 6 13 C6 11.02 6 9.04 6 7 C4.02 7 2.04 7 0 7 C0 4.69 0 2.38 0 0 Z " fill="#9A927E" transform="translate(54,103)"/>
<path d="M0 0 C3.96 0 7.92 0 12 0 C12 4.29 12 8.58 12 13 C10.02 13 8.04 13 6 13 C6 11.02 6 9.04 6 7 C4.02 7 2.04 7 0 7 C0 4.69 0 2.38 0 0 Z " fill="#BCB29C" transform="translate(91,60)"/>
<path d="M0 0 C1.98 0 3.96 0 6 0 C6 1.98 6 3.96 6 6 C7.98 6 9.96 6 12 6 C12 7.98 12 9.96 12 12 C8.04 12 4.08 12 0 12 C0 8.04 0 4.08 0 0 Z " fill="#9A927E" transform="translate(54,91)"/>
<path d="M0 0 C1.98 0 3.96 0 6 0 C6 1.98 6 3.96 6 6 C7.98 6 9.96 6 12 6 C12 7.98 12 9.96 12 12 C8.04 12 4.08 12 0 12 C0 8.04 0 4.08 0 0 Z " fill="#38342A" transform="translate(110,79)"/>
<path d="M0 0 C4.29 0 8.58 0 13 0 C13 2.31 13 4.62 13 7 C8.71 7 4.42 7 0 7 C0 4.69 0 2.38 0 0 Z " fill="#000000" transform="translate(25,81)"/>
<path d="M0 0 C2.31 0 4.62 0 7 0 C7 4.29 7 8.58 7 13 C4.69 13 2.38 13 0 13 C0 8.71 0 4.42 0 0 Z " fill="#000000" transform="translate(81,25)"/>
<path d="M0 0 C2.31 0 4.62 0 7 0 C7 4.29 7 8.58 7 13 C4.69 13 2.38 13 0 13 C0 8.71 0 4.42 0 0 Z " fill="#95EC11" transform="translate(6,25)"/>
<path d="M0 0 C4.29 0 8.58 0 13 0 C13 2.31 13 4.62 13 7 C8.71 7 4.42 7 0 7 C0 4.69 0 2.38 0 0 Z " fill="#95EC11" transform="translate(25,6)"/>
<path d="M0 0 C2.31 0 4.62 0 7 0 C7 3.96 7 7.92 7 12 C4.69 12 2.38 12 0 12 C0 8.04 0 4.08 0 0 Z " fill="#95EC11" transform="translate(6,63)"/>
<path d="M0 0 C3.96 0 7.92 0 12 0 C12 2.31 12 4.62 12 7 C8.04 7 4.08 7 0 7 C0 4.69 0 2.38 0 0 Z " fill="#95EC11" transform="translate(63,6)"/>
<path d="M0 0 C4.29 0 8.58 0 13 0 C13 1.98 13 3.96 13 6 C8.71 6 4.42 6 0 6 C0 4.02 0 2.04 0 0 Z " fill="#95EC11" transform="translate(25,88)"/>
<path d="M0 0 C1.98 0 3.96 0 6 0 C6 3.3 6 6.6 6 10 C6.99 10 7.98 10 9 10 C9 11.98 9 13.96 9 16 C7.02 16 5.04 16 3 16 C3 12.04 3 8.08 3 4 C2.01 4 1.02 4 0 4 C0 2.68 0 1.36 0 0 Z " fill="#95EC11" transform="translate(94,38)"/>
<path d="M0 0 C1.98 0 3.96 0 6 0 C6 4.29 6 8.58 6 13 C4.02 13 2.04 13 0 13 C0 8.71 0 4.42 0 0 Z " fill="#95EC11" transform="translate(88,25)"/>
<path d="M0 0 C1.98 0 3.96 0 6 0 C6 4.29 6 8.58 6 13 C4.02 13 2.04 13 0 13 C0 8.71 0 4.42 0 0 Z " fill="#95EC11" transform="translate(75,25)"/>
<path d="M0 0 C1.98 0 3.96 0 6 0 C6 4.29 6 8.58 6 13 C4.02 13 2.04 13 0 13 C0 8.71 0 4.42 0 0 Z " fill="#95EC11" transform="translate(19,25)"/>
<path d="M0 0 C1.98 0 3.96 0 6 0 C6 4.29 6 8.58 6 13 C4.02 13 2.04 13 0 13 C0 8.71 0 4.42 0 0 Z " fill="#000000" transform="translate(13,25)"/>
<path d="M0 0 C3.96 0 7.92 0 12 0 C12 1.98 12 3.96 12 6 C8.04 6 4.08 6 0 6 C0 4.02 0 2.04 0 0 Z " fill="#C6BCA5" transform="translate(79,91)"/>
<path d="M0 0 C3.96 0 7.92 0 12 0 C12 1.98 12 3.96 12 6 C8.04 6 4.08 6 0 6 C0 4.02 0 2.04 0 0 Z " fill="#C6BCA5" transform="translate(91,79)"/>
<path d="M0 0 C1.98 0 3.96 0 6 0 C6 3.96 6 7.92 6 12 C4.02 12 2.04 12 0 12 C0 8.04 0 4.08 0 0 Z " fill="#38342A" transform="translate(85,48)"/>
<path d="M0 0 C3.96 0 7.92 0 12 0 C12 1.98 12 3.96 12 6 C8.04 6 4.08 6 0 6 C0 4.02 0 2.04 0 0 Z " fill="#000000" transform="translate(13,19)"/>
<path d="M0 0 C3.3 0 6.6 0 10 0 C10 1.98 10 3.96 10 6 C6.7 6 3.4 6 0 6 C0 4.02 0 2.04 0 0 Z " fill="#95EC11" transform="translate(38,94)"/>
<path d="M0 0 C2.31 0 4.62 0 7 0 C7 2.31 7 4.62 7 7 C4.69 7 2.38 7 0 7 C0 4.69 0 2.38 0 0 Z " fill="#AEA694" transform="translate(66,103)"/>
<path d="M0 0 C2.31 0 4.62 0 7 0 C7 2.31 7 4.62 7 7 C4.69 7 2.38 7 0 7 C0 4.69 0 2.38 0 0 Z " fill="#DBD0B4" transform="translate(103,60)"/>
<path d="M0 0 C2.31 0 4.62 0 7 0 C7 1.98 7 3.96 7 6 C4.69 6 2.38 6 0 6 C0 4.02 0 2.04 0 0 Z " fill="#38342A" transform="translate(66,116)"/>
<path d="M0 0 C2.31 0 4.62 0 7 0 C7 1.98 7 3.96 7 6 C4.69 6 2.38 6 0 6 C0 4.02 0 2.04 0 0 Z " fill="#9A927E" transform="translate(66,110)"/>
<path d="M0 0 C1.98 0 3.96 0 6 0 C6 2.31 6 4.62 6 7 C4.02 7 2.04 7 0 7 C0 4.69 0 2.38 0 0 Z " fill="#38342A" transform="translate(91,103)"/>
<path d="M0 0 C1.98 0 3.96 0 6 0 C6 2.31 6 4.62 6 7 C4.02 7 2.04 7 0 7 C0 4.69 0 2.38 0 0 Z " fill="#38342A" transform="translate(54,103)"/>
<path d="M0 0 C2.31 0 4.62 0 7 0 C7 1.98 7 3.96 7 6 C4.69 6 2.38 6 0 6 C0 4.02 0 2.04 0 0 Z " fill="#38342A" transform="translate(103,91)"/>
<path d="M0 0 C1.98 0 3.96 0 6 0 C6 2.31 6 4.62 6 7 C4.02 7 2.04 7 0 7 C0 4.69 0 2.38 0 0 Z " fill="#95EC11" transform="translate(19,81)"/>
<path d="M0 0 C2.31 0 4.62 0 7 0 C7 1.98 7 3.96 7 6 C4.69 6 2.38 6 0 6 C0 4.02 0 2.04 0 0 Z " fill="#38342A" transform="translate(103,73)"/>
<path d="M0 0 C2.31 0 4.62 0 7 0 C7 1.98 7 3.96 7 6 C4.69 6 2.38 6 0 6 C0 4.02 0 2.04 0 0 Z " fill="#38342A" transform="translate(66,73)"/>
<path d="M0 0 C1.98 0 3.96 0 6 0 C6 2.31 6 4.62 6 7 C4.02 7 2.04 7 0 7 C0 4.69 0 2.38 0 0 Z " fill="#38342A" transform="translate(110,60)"/>
<path d="M0 0 C1.98 0 3.96 0 6 0 C6 2.31 6 4.62 6 7 C4.02 7 2.04 7 0 7 C0 4.69 0 2.38 0 0 Z " fill="#38342A" transform="translate(91,60)"/>
<path d="M0 0 C1.98 0 3.96 0 6 0 C6 2.31 6 4.62 6 7 C4.02 7 2.04 7 0 7 C0 4.69 0 2.38 0 0 Z " fill="#38342A" transform="translate(79,60)"/>
<path d="M0 0 C2.31 0 4.62 0 7 0 C7 1.98 7 3.96 7 6 C4.69 6 2.38 6 0 6 C0 4.02 0 2.04 0 0 Z " fill="#38342A" transform="translate(103,54)"/>
<path d="M0 0 C2.31 0 4.62 0 7 0 C7 1.98 7 3.96 7 6 C4.69 6 2.38 6 0 6 C0 4.02 0 2.04 0 0 Z " fill="#95EC11" transform="translate(81,19)"/>
<path d="M0 0 C1.98 0 3.96 0 6 0 C6 1.98 6 3.96 6 6 C4.02 6 2.04 6 0 6 C0 4.02 0 2.04 0 0 Z " fill="#9A927E" transform="translate(73,116)"/>
<path d="M0 0 C1.98 0 3.96 0 6 0 C6 1.98 6 3.96 6 6 C4.02 6 2.04 6 0 6 C0 4.02 0 2.04 0 0 Z " fill="#AEA694" transform="translate(73,110)"/>
<path d="M0 0 C1.98 0 3.96 0 6 0 C6 1.98 6 3.96 6 6 C4.02 6 2.04 6 0 6 C0 4.02 0 2.04 0 0 Z " fill="#38342A" transform="translate(60,110)"/>
<path d="M0 0 C1.98 0 3.96 0 6 0 C6 1.98 6 3.96 6 6 C4.02 6 2.04 6 0 6 C0 4.02 0 2.04 0 0 Z " fill="#38342A" transform="translate(97,97)"/>
<path d="M0 0 C1.98 0 3.96 0 6 0 C6 1.98 6 3.96 6 6 C4.02 6 2.04 6 0 6 C0 4.02 0 2.04 0 0 Z " fill="#AEA694" transform="translate(60,97)"/>
<path d="M0 0 C1.98 0 3.96 0 6 0 C6 1.98 6 3.96 6 6 C4.02 6 2.04 6 0 6 C0 4.02 0 2.04 0 0 Z " fill="#AEA694" transform="translate(54,91)"/>
<path d="M0 0 C1.98 0 3.96 0 6 0 C6 1.98 6 3.96 6 6 C4.02 6 2.04 6 0 6 C0 4.02 0 2.04 0 0 Z " fill="#C6BCA5" transform="translate(73,85)"/>
<path d="M0 0 C1.98 0 3.96 0 6 0 C6 1.98 6 3.96 6 6 C4.02 6 2.04 6 0 6 C0 4.02 0 2.04 0 0 Z " fill="#38342A" transform="translate(54,85)"/>
<path d="M0 0 C1.98 0 3.96 0 6 0 C6 1.98 6 3.96 6 6 C4.02 6 2.04 6 0 6 C0 4.02 0 2.04 0 0 Z " fill="#807A6D" transform="translate(116,79)"/>
<path d="M0 0 C1.98 0 3.96 0 6 0 C6 1.98 6 3.96 6 6 C4.02 6 2.04 6 0 6 C0 4.02 0 2.04 0 0 Z " fill="#38342A" transform="translate(60,79)"/>
<path d="M0 0 C1.98 0 3.96 0 6 0 C6 1.98 6 3.96 6 6 C4.02 6 2.04 6 0 6 C0 4.02 0 2.04 0 0 Z " fill="#000000" transform="translate(19,75)"/>
<path d="M0 0 C1.98 0 3.96 0 6 0 C6 1.98 6 3.96 6 6 C4.02 6 2.04 6 0 6 C0 4.02 0 2.04 0 0 Z " fill="#95EC11" transform="translate(13,75)"/>
<path d="M0 0 C1.98 0 3.96 0 6 0 C6 1.98 6 3.96 6 6 C4.02 6 2.04 6 0 6 C0 4.02 0 2.04 0 0 Z " fill="#BCB29C" transform="translate(110,73)"/>
<path d="M0 0 C1.98 0 3.96 0 6 0 C6 1.98 6 3.96 6 6 C4.02 6 2.04 6 0 6 C0 4.02 0 2.04 0 0 Z " fill="#C6BCA5" transform="translate(85,73)"/>
<path d="M0 0 C1.98 0 3.96 0 6 0 C6 1.98 6 3.96 6 6 C4.02 6 2.04 6 0 6 C0 4.02 0 2.04 0 0 Z " fill="#DBD0B4" transform="translate(110,67)"/>
<path d="M0 0 C1.98 0 3.96 0 6 0 C6 1.98 6 3.96 6 6 C4.02 6 2.04 6 0 6 C0 4.02 0 2.04 0 0 Z " fill="#38342A" transform="translate(97,67)"/>
<path d="M0 0 C1.98 0 3.96 0 6 0 C6 1.98 6 3.96 6 6 C4.02 6 2.04 6 0 6 C0 4.02 0 2.04 0 0 Z " fill="#C6BCA5" transform="translate(79,67)"/>
<path d="M0 0 C1.98 0 3.96 0 6 0 C6 1.98 6 3.96 6 6 C4.02 6 2.04 6 0 6 C0 4.02 0 2.04 0 0 Z " fill="#38342A" transform="translate(73,67)"/>
<path d="M0 0 C1.98 0 3.96 0 6 0 C6 1.98 6 3.96 6 6 C4.02 6 2.04 6 0 6 C0 4.02 0 2.04 0 0 Z " fill="#DBD0B4" transform="translate(97,54)"/>
<path d="M0 0 C1.98 0 3.96 0 6 0 C6 1.98 6 3.96 6 6 C4.02 6 2.04 6 0 6 C0 4.02 0 2.04 0 0 Z " fill="#38342A" transform="translate(97,48)"/>
<path d="M0 0 C1.98 0 3.96 0 6 0 C6 1.98 6 3.96 6 6 C4.02 6 2.04 6 0 6 C0 4.02 0 2.04 0 0 Z " fill="#DBD0B4" transform="translate(91,48)"/>
<path d="M0 0 C1.98 0 3.96 0 6 0 C6 1.98 6 3.96 6 6 C4.02 6 2.04 6 0 6 C0 4.02 0 2.04 0 0 Z " fill="#38342A" transform="translate(91,42)"/>
<path d="M0 0 C1.98 0 3.96 0 6 0 C6 1.98 6 3.96 6 6 C4.02 6 2.04 6 0 6 C0 4.02 0 2.04 0 0 Z " fill="#000000" transform="translate(75,19)"/>
<path d="M0 0 C1.98 0 3.96 0 6 0 C6 1.98 6 3.96 6 6 C4.02 6 2.04 6 0 6 C0 4.02 0 2.04 0 0 Z " fill="#95EC11" transform="translate(13,19)"/>
<path d="M0 0 C1.98 0 3.96 0 6 0 C6 1.98 6 3.96 6 6 C4.02 6 2.04 6 0 6 C0 4.02 0 2.04 0 0 Z " fill="#95EC11" transform="translate(75,13)"/>
<path d="M0 0 C1.98 0 3.96 0 6 0 C6 1.98 6 3.96 6 6 C4.02 6 2.04 6 0 6 C0 4.02 0 2.04 0 0 Z " fill="#95EC11" transform="translate(19,13)"/>
</svg>